<svg width="14" height="12" viewBox="0 0 14 12" fill="none" xmlns="http://www.w3.org/2000/svg">
<path fill-rule="evenodd" clip-rule="evenodd" d="M11.6666 0.666626H2.33325C1.22868 0.666626 0.333252 1.56206 0.333252 2.66663V9.33329C0.333252 10.4379 1.22868 11.3333 2.33325 11.3333H11.6666C12.7712 11.3333 13.6666 10.4379 13.6666 9.33329V2.66663C13.6666 1.56206 12.7712 0.666626 11.6666 0.666626ZM11.3933 1.99996L7.47325 5.91996C7.34807 6.04617 7.17768 6.11716 6.99992 6.11716C6.82216 6.11716 6.65176 6.04617 6.52659 5.91996L2.60659 1.99996H11.3933ZM12.3333 9.33329C12.3333 9.70148 12.0348 9.99996 11.6666 9.99996H2.33325C1.96506 9.99996 1.66659 9.70148 1.66659 9.33329V2.93996L5.58659 6.85996C6.36743 7.63984 7.6324 7.63984 8.41325 6.85996L12.3333 2.93996V9.33329Z" fill="#EB6C00"/>
</svg>
