<svg width="25" height="24" viewBox="0 0 25 24" fill="none" xmlns="http://www.w3.org/2000/svg">
<g id="github-142-svgrepo-com" clip-path="url(#clip0_60_339)">
<g id="Page-1">
<g id="Dribbble-Light-Preview">
<g id="icons">
<path id="github-[#142]" fill-rule="evenodd" clip-rule="evenodd" d="M12.9619 0C19.5895 0 24.9619 5.50792 24.9619 12.3035C24.9619 17.7383 21.5275 22.3487 16.7623 23.9771C16.1539 24.0983 15.9379 23.7141 15.9379 23.3865C15.9379 22.9809 15.9523 21.6562 15.9523 20.0098C15.9523 18.8626 15.5683 18.1138 15.1375 17.7322C17.8099 17.4274 20.6179 16.3869 20.6179 11.6613C20.6179 10.3173 20.1523 9.22058 19.3819 8.35898C19.5067 8.04818 19.9183 6.79674 19.2643 5.10234C19.2643 5.10234 18.2587 4.77267 15.9679 6.36387C15.0091 6.09147 13.9819 5.95441 12.9619 5.94961C11.9419 5.95441 10.9159 6.09147 9.95832 6.36387C7.66512 4.77267 6.65712 5.10234 6.65712 5.10234C6.00552 6.79674 6.41712 8.04818 6.54072 8.35898C5.77392 9.22058 5.30472 10.3173 5.30472 11.6613C5.30472 16.3749 8.10672 17.4314 10.7719 17.7422C10.4287 18.0494 10.1179 18.5913 10.0099 19.3869C9.32592 19.7013 7.58831 20.2454 6.51791 18.365C6.51791 18.365 5.88311 17.1829 4.67831 17.0965C4.67831 17.0965 3.50831 17.0809 4.59671 17.8441C4.59671 17.8441 5.38271 18.2221 5.92871 19.6441C5.92871 19.6441 6.63312 21.8401 9.97152 21.0961C9.97752 22.1245 9.98832 23.0937 9.98832 23.3865C9.98832 23.7117 9.76751 24.0923 9.16871 23.9783C4.39991 22.3523 0.961914 17.7395 0.961914 12.3035C0.961914 5.50792 6.33551 0 12.9619 0Z" fill="black"/>
</g>
</g>
</g>
</g>
<defs>
<clipPath id="clip0_60_339">
<rect width="24" height="24" fill="white" transform="translate(0.961914)"/>
</clipPath>
</defs>
</svg>
