<svg width="22" height="24" viewBox="0 0 22 24" fill="none" xmlns="http://www.w3.org/2000/svg">
<g id="Group 8">
<path id="Vector" d="M2.29056 21.6009L0.364563 0H21.5274L19.5988 21.5974L10.9331 24L2.29056 21.6009Z" fill="#E44F26"/>
<path id="Vector_2" d="M10.946 22.164L17.9488 20.2225L19.5963 1.76654H10.946V22.164Z" fill="#F1662A"/>
<path id="Vector_3" d="M10.946 9.77745H7.44024L7.19853 7.06459H10.946V4.41516H10.9365H4.3031L4.36653 5.12659L5.0171 12.4269H10.946V9.77745Z" fill="#EBEBEB"/>
<path id="Vector_4" d="M10.946 16.6577L10.934 16.6612L7.98372 15.8649L7.79515 13.752H6.36115H5.13544L5.50658 17.9109L10.934 19.4177L10.946 19.4143V16.6577Z" fill="#EBEBEB"/>
<path id="Vector_5" d="M10.9365 9.7774V12.4268H14.1988L13.892 15.8631L10.9365 16.6603V19.4168L16.3682 17.9108L16.4077 17.4634L17.03 10.4888L17.0951 9.7774H16.3811H10.9365Z" fill="white"/>
<path id="Vector_6" d="M10.9365 4.41516V6.06088V7.05859V7.06459H17.3274H17.336L17.3891 6.46973L17.51 5.12659L17.5734 4.41516H10.9365Z" fill="white"/>
</g>
</svg>
