<svg width="25" height="24" viewBox="0 0 25 24" fill="none" xmlns="http://www.w3.org/2000/svg">
<g id="Group 7">
<path id="Vector" d="M24.968 0H0.968018V24H24.968V0Z" fill="#FFCA28"/>
<path id="Vector_2" d="M15.5394 19.961L17.3064 18.7917C17.4449 19.2268 18.3219 20.2601 19.4296 20.2601C20.5373 20.2601 21.0515 19.6551 21.0515 19.254C21.0515 18.1609 19.9205 17.7756 19.3772 17.5905C19.2886 17.5603 19.2157 17.5355 19.1658 17.5138C19.1402 17.5027 19.1015 17.4878 19.0519 17.4689C18.4477 17.2381 16.2185 16.3864 16.2185 13.9177C16.2185 11.1986 18.8427 10.8859 19.4362 10.8859C19.8244 10.8859 21.6911 10.9334 22.6207 12.6805L20.9064 13.877C20.5307 13.1156 19.9062 12.8641 19.5219 12.8641C18.5724 12.8641 18.3746 13.5601 18.3746 13.877C18.3746 14.766 19.4062 15.1645 20.2771 15.5009C20.505 15.5889 20.7219 15.6727 20.9064 15.7599C21.8559 16.2085 23.2537 16.9428 23.2537 19.254C23.2537 20.4116 22.2827 22.2859 19.8383 22.2859C16.5548 22.2859 15.6845 20.3145 15.5394 19.961Z" fill="#3E3E3E"/>
<path id="Vector_3" d="M6.96802 20.1931L8.80976 19.0245C8.95402 19.4593 9.51485 20.2611 10.3284 20.2611C11.1421 20.2611 11.5586 19.4254 11.5586 19.0245V11.143H13.8236V19.0245C13.8603 20.1116 13.2574 22.2859 10.5965 22.2859C8.15002 22.2859 7.13295 20.8319 6.96802 20.1931Z" fill="#3E3E3E"/>
</g>
</svg>
