<svg width="12" height="16" viewBox="0 0 12 16" fill="none" xmlns="http://www.w3.org/2000/svg">
<path fill-rule="evenodd" clip-rule="evenodd" d="M5.99995 0.861084C2.80897 0.861084 0.222168 3.44788 0.222168 6.63886C0.222168 10.5389 5.31383 14.9444 5.5305 15.1322C5.80077 15.3634 6.19912 15.3634 6.46939 15.1322C6.72217 14.9444 11.7777 10.5389 11.7777 6.63886C11.7777 3.44788 9.19092 0.861084 5.99995 0.861084ZM5.99995 13.6083C4.46161 12.1639 1.66661 9.05108 1.66661 6.63886C1.66661 4.24563 3.60671 2.30553 5.99995 2.30553C8.39318 2.30553 10.3333 4.24563 10.3333 6.63886C10.3333 9.05108 7.53828 12.1711 5.99995 13.6083ZM5.99995 3.74997C4.40446 3.74997 3.11106 5.04337 3.11106 6.63886C3.11106 8.23435 4.40446 9.52775 5.99995 9.52775C7.59543 9.52775 8.88883 8.23435 8.88883 6.63886C8.88883 5.04337 7.59543 3.74997 5.99995 3.74997V3.74997ZM5.99995 8.08331C5.2022 8.08331 4.5555 7.43661 4.5555 6.63886C4.5555 5.84112 5.2022 5.19442 5.99995 5.19442C6.79769 5.19442 7.44439 5.84112 7.44439 6.63886C7.44439 7.43661 6.79769 8.08331 5.99995 8.08331Z" fill="#EB6C00"/>
</svg>
