<svg width="14" height="14" viewBox="0 0 14 14" fill="none" xmlns="http://www.w3.org/2000/svg">
<path fill-rule="evenodd" clip-rule="evenodd" d="M11.9601 7.66662C11.8134 7.66662 11.6601 7.61996 11.5134 7.58662C11.2164 7.52117 10.9245 7.43428 10.6401 7.32662C9.99958 7.09361 9.28646 7.38116 8.98675 7.99329L8.84008 8.29329C8.19075 7.93207 7.59407 7.48344 7.06675 6.95996C6.54326 6.43263 6.09463 5.83595 5.73341 5.18662L6.01341 4.99996C6.62555 4.70024 6.91309 3.98712 6.68008 3.34662C6.57423 3.06157 6.48737 2.76982 6.42008 2.47329C6.38675 2.32662 6.36008 2.17329 6.34008 2.01996C6.17283 1.0498 5.32444 0.345644 4.34008 0.359955H2.34008C1.75871 0.354497 1.20373 0.602294 0.8197 1.03881C0.435669 1.47533 0.260596 2.05735 0.34008 2.63329C1.0707 8.3788 5.60529 12.8969 11.3534 13.6066H11.6067C12.0984 13.6073 12.573 13.427 12.9401 13.1C13.3667 12.7184 13.6094 12.1723 13.6067 11.6V9.59996C13.5899 8.645 12.9002 7.83521 11.9601 7.66662V7.66662ZM12.2934 11.6666C12.2932 11.8581 12.2106 12.0402 12.0667 12.1666C11.9161 12.2967 11.7176 12.3572 11.5201 12.3333C6.3841 11.6748 2.34756 7.619 1.71341 2.47996C1.69197 2.28262 1.75219 2.0851 1.88008 1.93329C2.00646 1.78943 2.1886 1.70686 2.38008 1.70662H4.38008C4.69988 1.69951 4.97965 1.92053 5.04675 2.23329C5.07341 2.41551 5.10675 2.59551 5.14675 2.77329C5.22376 3.12472 5.32625 3.47008 5.45341 3.80662L4.52008 4.23996C4.3589 4.3139 4.23383 4.44902 4.17253 4.61542C4.11122 4.78182 4.11874 4.96578 4.19341 5.12662C5.15288 7.18179 6.80491 8.83382 8.86008 9.79329C9.02239 9.85997 9.20444 9.85997 9.36675 9.79329C9.53469 9.73322 9.67155 9.60836 9.74675 9.44662L10.1601 8.51329C10.5047 8.63654 10.8565 8.73895 11.2134 8.81996C11.3912 8.85996 11.5712 8.89329 11.7534 8.91996C12.0662 8.98705 12.2872 9.26683 12.2801 9.58662L12.2934 11.6666Z" fill="#EB6C00"/>
</svg>
