<svg width="28" height="24" viewBox="0 0 28 24" fill="none" xmlns="http://www.w3.org/2000/svg">
<g id="Group 5">
<path id="Vector" d="M22.7968 7.77885C22.517 7.68253 22.227 7.5914 21.9285 7.50521C21.9775 7.30494 22.0226 7.10726 22.0626 6.91295C22.72 3.72221 22.2902 1.15173 20.8226 0.305416C19.4154 -0.506085 17.114 0.340035 14.7897 2.36281C14.5661 2.55732 14.342 2.76325 14.118 2.97908C13.9687 2.83628 13.8197 2.69829 13.671 2.5663C11.2351 0.403415 8.7934 -0.508053 7.32727 0.340707C5.92139 1.15456 5.50505 3.57106 6.09674 6.59494C6.15388 6.88702 6.22067 7.18529 6.2962 7.48855C5.95063 7.58665 5.61702 7.69122 5.29782 7.80247C2.44194 8.79816 0.618042 10.3586 0.618042 11.9773C0.618042 13.649 2.576 15.3258 5.55062 16.3425C5.78536 16.4227 6.02894 16.4986 6.27997 16.5706C6.19848 16.8986 6.12761 17.22 6.06812 17.5335C5.50395 20.5049 5.94453 22.8643 7.34667 23.673C8.79494 24.5082 11.2256 23.6498 13.5924 21.5809C13.7794 21.4174 13.9672 21.2439 14.1552 21.0621C14.399 21.2969 14.6424 21.5191 14.8845 21.7274C17.177 23.7002 19.4412 24.4968 20.8421 23.6859C22.2889 22.8483 22.7591 20.3137 22.1487 17.23C22.102 16.9945 22.0478 16.7539 21.9869 16.509C22.1576 16.4586 22.3251 16.4065 22.4885 16.3523C25.5809 15.3277 27.5929 13.6713 27.5929 11.9773C27.5929 10.3528 25.7102 8.78179 22.7968 7.77885ZM22.1261 15.2585C21.9786 15.3073 21.8273 15.3545 21.673 15.4003C21.3316 14.3195 20.8709 13.1703 20.3071 11.9829C20.8451 10.8238 21.288 9.68927 21.6199 8.61551C21.8958 8.69536 22.1636 8.77958 22.4217 8.86845C24.9179 9.72778 26.4406 10.9983 26.4406 11.9773C26.4406 13.0201 24.7962 14.3738 22.1261 15.2585ZM21.0182 17.4538C21.2881 18.8174 21.3267 20.0502 21.1479 21.014C20.9872 21.88 20.6641 22.4574 20.2647 22.6886C19.4146 23.1807 17.5966 22.541 15.636 20.8539C15.4113 20.6605 15.1849 20.454 14.9578 20.2354C15.7178 19.4041 16.4775 18.4377 17.2189 17.3645C18.5229 17.2487 19.7549 17.0596 20.8722 16.8013C20.9272 17.0233 20.9761 17.241 21.0182 17.4538ZM9.81439 22.6036C8.98383 22.8969 8.32233 22.9053 7.92246 22.6747C7.07159 22.184 6.71786 20.2896 7.20036 17.7484C7.25563 17.4574 7.32141 17.1585 7.39723 16.8529C8.50224 17.0973 9.72523 17.2731 11.0324 17.3791C11.7788 18.4293 12.5604 19.3946 13.348 20.2399C13.1759 20.406 13.0045 20.5642 12.8341 20.7132C11.7875 21.628 10.7387 22.2771 9.81439 22.6036ZM5.92331 15.2521C4.60799 14.8025 3.52175 14.2182 2.77718 13.5806C2.10814 13.0077 1.77035 12.4388 1.77035 11.9773C1.77035 10.995 3.23476 9.74218 5.67714 8.89063C5.97349 8.78731 6.28371 8.68993 6.60565 8.59846C6.9432 9.69647 7.38599 10.8445 7.92035 12.0053C7.37908 13.1834 6.92999 14.3497 6.58913 15.4606C6.35962 15.3946 6.13727 15.3252 5.92331 15.2521ZM7.22764 6.37364C6.7207 3.78285 7.05738 1.82845 7.9046 1.33803C8.80704 0.815575 10.8026 1.56048 12.9058 3.42802C13.0403 3.54739 13.1753 3.67232 13.3106 3.80158C12.5269 4.64314 11.7524 5.60123 11.0127 6.64526C9.744 6.76285 8.52961 6.95174 7.41307 7.20469C7.34287 6.92231 7.28069 6.64488 7.22764 6.37364ZM18.8634 9.24681C18.5965 8.78577 18.3225 8.33563 18.0431 7.89778C18.9038 8.00658 19.7284 8.15101 20.5028 8.32776C20.2703 9.07285 19.9805 9.8519 19.6394 10.6505C19.3947 10.186 19.1359 9.7176 18.8634 9.24681ZM14.1184 4.62513C14.6499 5.20097 15.1822 5.84389 15.7057 6.54146C15.1781 6.51654 14.644 6.50357 14.1055 6.50357C13.572 6.50357 13.0419 6.51625 12.5175 6.54074C13.0416 5.84966 13.5785 5.2076 14.1184 4.62513ZM9.34294 9.25478C9.07631 9.71712 8.82231 10.183 8.58147 10.6497C8.24589 9.85382 7.95881 9.07122 7.7243 8.31556C8.49394 8.14333 9.31466 8.0025 10.1698 7.89577C9.88656 8.33765 9.61028 8.7912 9.34294 9.25478ZM10.1945 16.141C9.31091 16.0424 8.47785 15.9088 7.70841 15.7414C7.94666 14.9722 8.24008 14.1729 8.58276 13.3599C8.82423 13.8263 9.07924 14.2923 9.3475 14.7557C9.62075 15.2277 9.9039 15.6901 10.1945 16.141ZM14.1502 19.4107C13.6041 18.8214 13.0593 18.1695 12.5272 17.4684C13.0437 17.4886 13.5703 17.499 14.1055 17.499C14.6553 17.499 15.1988 17.4866 15.7338 17.4628C15.2085 18.1766 14.6782 18.8294 14.1502 19.4107ZM19.6504 13.3185C20.0109 14.1403 20.3149 14.9354 20.5562 15.6914C19.7741 15.8698 18.9297 16.0136 18.0399 16.1203C18.32 15.6766 18.5964 15.2187 18.868 14.7477C19.1428 14.2712 19.4037 13.794 19.6504 13.3185ZM17.8698 14.172C17.4481 14.9032 17.0152 15.6011 16.5758 16.2599C15.7753 16.3172 14.9483 16.3466 14.1055 16.3466C13.266 16.3466 12.4495 16.3206 11.6632 16.2695C11.206 15.6021 10.7637 14.9021 10.3447 14.1783C9.92685 13.4566 9.54234 12.7287 9.19385 12.0049C9.54225 11.2795 9.92584 10.5508 10.3413 9.83034L10.3412 9.83048C10.7578 9.1081 11.1962 8.41149 11.6492 7.74822C12.4514 7.68757 13.2741 7.65593 14.1054 7.65593C14.9406 7.65593 15.7643 7.68781 16.5663 7.74898C17.0124 8.40741 17.4478 9.10176 17.866 9.82424C18.289 10.5548 18.6775 11.2787 19.0289 11.9886C18.6786 12.7107 18.2909 13.4418 17.8698 14.172ZM20.247 1.30374C21.1503 1.82466 21.5016 3.9255 20.934 6.68036C20.8978 6.85615 20.8571 7.03519 20.8128 7.21664C19.6937 6.95842 18.4784 6.76626 17.2061 6.6469C16.4649 5.59138 15.6968 4.6318 14.9258 3.80105C15.1331 3.60164 15.3401 3.4115 15.5462 3.23207C17.5376 1.49897 19.3989 0.814711 20.247 1.30374ZM14.1055 9.56851C15.4358 9.56851 16.5143 10.6469 16.5143 11.9773C16.5143 13.3076 15.4358 14.386 14.1055 14.386C12.7752 14.386 11.6967 13.3076 11.6967 11.9773C11.6967 10.6469 12.7752 9.56851 14.1055 9.56851Z" fill="#00D8FF"/>
</g>
</svg>
