<svg width="25" height="24" viewBox="0 0 25 24" fill="none" xmlns="http://www.w3.org/2000/svg">
<g id="Group 4">
<path id="Vector" fill-rule="evenodd" clip-rule="evenodd" d="M12.8929 0C15.2663 0 17.5864 0.703788 19.5598 2.02236C21.5332 3.34094 23.0712 5.21508 23.9795 7.4078C24.8877 9.60051 25.1254 12.0133 24.6624 14.3411C24.1993 16.6689 23.0564 18.807 21.3782 20.4853C19.7 22.1635 17.5618 23.3064 15.234 23.7694C12.9063 24.2324 10.4935 23.9948 8.30074 23.0865C6.10803 22.1783 4.23389 20.6402 2.91531 18.6668C1.59673 16.6934 0.892944 14.3734 0.892944 12C0.892944 8.8174 2.15723 5.76515 4.40766 3.51472C6.6581 1.26428 9.71034 0 12.8929 0Z" fill="#CC6699"/>
<path id="Vector_2" d="M20.4204 5.13605C19.8769 3.00519 16.3429 2.30748 12.9984 3.49205C10.9038 4.19589 8.96857 5.30593 7.30351 6.75862C5.46151 8.48148 5.16751 9.98148 5.28837 10.608C5.71694 12.8195 8.74523 14.2646 9.99066 15.3369V15.3429C9.6238 15.5238 6.9358 16.8858 6.30494 18.2743C5.64151 19.7418 6.41037 20.7943 6.92037 20.9358C7.68607 21.1201 8.49028 21.0601 9.22015 20.7642C9.95003 20.4683 10.5689 19.9513 10.9901 19.2858C11.3381 18.7465 11.5559 18.1337 11.6261 17.4958C11.6963 16.8579 11.6171 16.2123 11.3947 15.6103C11.9945 15.4579 12.6181 15.4221 13.2315 15.5049C15.3367 15.7509 15.7498 17.0649 15.6709 17.6152C15.6339 17.8111 15.555 17.9967 15.4398 18.1594C15.3246 18.3221 15.1757 18.458 15.0032 18.558C14.8558 18.6498 14.8104 18.6806 14.8232 18.7492C14.8412 18.8478 14.9089 18.8443 15.0349 18.8229C15.3513 18.7233 15.63 18.5301 15.8345 18.269C16.0389 18.0078 16.1594 17.6908 16.1801 17.3598C16.2307 16.074 14.9955 14.6289 12.8081 14.6658C12.1728 14.6476 11.5388 14.7345 10.9318 14.9229C10.9018 14.8886 10.8709 14.8543 10.8392 14.82C9.48666 13.3775 6.98723 12.3566 7.09266 10.4169C7.13123 9.71148 7.37637 7.85491 11.8927 5.60233C15.5955 3.75691 18.5595 4.26519 19.0721 5.39062C19.8041 6.99862 17.4881 9.98576 13.6429 10.4169C13.2179 10.5032 12.779 10.4927 12.3586 10.3861C11.9382 10.2796 11.5473 10.0798 11.2147 9.80148C11.0124 9.57862 10.9824 9.56919 10.9069 9.61033C10.7844 9.67805 10.8624 9.87519 10.9069 9.99176C11.0542 10.2571 11.2529 10.4904 11.4915 10.6779C11.7301 10.8654 12.0037 11.0034 12.2964 11.0838C13.8082 11.4123 15.385 11.2563 16.8032 10.638C19.1355 9.7389 20.9544 7.23176 20.4204 5.13605ZM10.5084 15.9969C10.6786 16.5838 10.67 17.2081 10.4835 17.79C10.4635 17.8506 10.4415 17.9106 10.4175 17.97C10.3935 18.0295 10.3675 18.0866 10.3395 18.1415C10.1953 18.4366 10.0084 18.709 9.78494 18.9498C9.08809 19.71 8.11351 19.998 7.69609 19.7555C7.24523 19.494 7.47066 18.4218 8.27894 17.5672C8.90001 16.953 9.61606 16.4431 10.3995 16.0569L10.5084 15.9969Z" fill="white"/>
</g>
</svg>
