<svg width="14" height="14" viewBox="0 0 14 14" fill="none" xmlns="http://www.w3.org/2000/svg">
<path fill-rule="evenodd" clip-rule="evenodd" d="M6.99992 0.333374C3.31802 0.333374 0.333252 3.31814 0.333252 7.00004C0.333252 10.6819 3.31802 13.6667 6.99992 13.6667C10.6818 13.6667 13.6666 10.6819 13.6666 7.00004C13.6666 5.23193 12.9642 3.53624 11.714 2.286C10.4637 1.03575 8.76803 0.333374 6.99992 0.333374ZM7.66659 12.2867V11.6667C7.66659 11.2985 7.36811 11 6.99992 11C6.63173 11 6.33325 11.2985 6.33325 11.6667V12.2867C3.91979 11.9807 2.01931 10.0802 1.71325 7.66671H2.33325C2.70144 7.66671 2.99992 7.36823 2.99992 7.00004C2.99992 6.63185 2.70144 6.33337 2.33325 6.33337H1.71325C2.01931 3.91991 3.91979 2.01943 6.33325 1.71337V2.33337C6.33325 2.70156 6.63173 3.00004 6.99992 3.00004C7.36811 3.00004 7.66659 2.70156 7.66659 2.33337V1.71337C10.08 2.01943 11.9805 3.91991 12.2866 6.33337H11.6666C11.2984 6.33337 10.9999 6.63185 10.9999 7.00004C10.9999 7.36823 11.2984 7.66671 11.6666 7.66671H12.2866C11.9805 10.0802 10.08 11.9807 7.66659 12.2867ZM9.09325 4.03337L5.75992 5.44671C5.60453 5.51404 5.48058 5.63798 5.41325 5.79337L3.99992 9.12671C3.8925 9.37681 3.94792 9.6671 4.13992 9.86004C4.26301 9.98565 4.43074 10.0575 4.60659 10.06C4.69883 10.0601 4.78993 10.0396 4.87325 10L8.20659 8.58671C8.36198 8.51938 8.48592 8.39543 8.55325 8.24004L9.96659 4.90671C10.072 4.65682 10.0155 4.36801 9.82372 4.17624C9.63195 3.98448 9.34313 3.92799 9.09325 4.03337V4.03337ZM7.43325 7.43337L5.91325 8.10004L6.57992 6.58004L8.09992 5.91337L7.43325 7.43337Z" fill="#EB6C00"/>
</svg>
