<svg width="595" height="596" viewBox="0 0 595 596" fill="none" xmlns="http://www.w3.org/2000/svg">
<path d="M60.4223 353.67L293.618 221.547V282.031L78.1852 403.83L77.7739 404.062L77.9829 404.486C117.212 484.04 198.303 539.767 293.618 543.258V595.277C130.495 589.724 0.5 458.822 0.5 298.228C0.5 136.972 130.495 6.06924 293.618 0.516885V52.5382C159.711 58.0876 53.5906 165.563 53.5906 298.228C53.5906 316.821 55.6229 335.414 59.6882 353.345L59.8369 354.001L60.4223 353.67ZM328.049 0.51731C446.9 4.65987 548.289 75.0014 594.223 175.59H534.502C516.243 144.518 491.258 117.411 461.559 96.9015L460.774 96.36V97.313V497.819V498.772L461.559 498.23C491.258 477.72 516.243 450.613 534.502 419.542H594.223C548.288 520.135 446.899 591.132 328.049 595.276V542.66C355.632 541.938 382.532 535.983 407.418 526.753L407.744 526.632V526.284V68.8472V68.4994L407.418 68.3784C382.532 59.1488 355.632 53.1932 328.049 52.4718V0.51731Z" stroke="white"/>
</svg>
