<svg width="17" height="24" viewBox="0 0 17 24" fill="none" xmlns="http://www.w3.org/2000/svg">
<g id="Group 12">
<path id="Vector" d="M8.23801 12C8.23801 9.79026 9.98486 8.00055 12.138 8.00055C14.2929 8.00055 16.038 9.78855 16.038 12C16.038 14.2097 14.2929 15.9994 12.138 15.9994C9.98658 15.9994 8.23801 14.2114 8.23801 12Z" fill="#1ABCFE"/>
<path id="Vector_2" d="M0.438019 20.0006C0.438019 17.7909 2.18488 15.9995 4.33802 15.9995H8.23802V20.0006C8.23802 22.2086 6.49116 24 4.33802 24C2.18488 24 0.438019 22.2086 0.438019 20.0006Z" fill="#0ACF83"/>
<path id="Vector_3" d="M8.23801 0V8.00057H12.138C14.2929 8.00057 16.038 6.20914 16.038 3.99943C16.038 1.79143 14.2929 0 12.138 0H8.23801Z" fill="#FF7262"/>
<path id="Vector_4" d="M0.438019 3.99943C0.438019 6.20914 2.18488 8.00057 4.33802 8.00057H8.23802V0H4.33802C2.18488 0 0.438019 1.79143 0.438019 3.99943Z" fill="#F24E1E"/>
<path id="Vector_5" d="M0.438019 12C0.438019 14.2097 2.18488 15.9994 4.33802 15.9994H8.23802V8.00055H4.33802C2.18488 8.00055 0.438019 9.78855 0.438019 12Z" fill="#A259FF"/>
</g>
</svg>
