<svg width="25" height="24" viewBox="0 0 25 24" fill="none" xmlns="http://www.w3.org/2000/svg">
<g id="Group 9">
<path id="Vector" d="M1.48721 13.2113C0.818228 12.5423 0.818228 11.4577 1.48721 10.7887L11.7742 0.501738C12.4432 -0.167246 13.5278 -0.167246 14.1968 0.501738L24.4837 10.7887C25.1527 11.4577 25.1527 12.5423 24.4837 13.2113L14.1968 23.4983C13.5278 24.1673 12.4432 24.1673 11.7742 23.4983L1.48721 13.2113Z" fill="#EE513B"/>
<path id="Vector_2" d="M9.68454 2.62415L8.64285 3.66587L11.3333 6.35636C11.2245 6.58987 11.1637 6.85028 11.1637 7.1249C11.1637 7.90456 11.6536 8.56979 12.3423 8.82959V15.4113C11.6536 15.6711 11.1637 16.3363 11.1637 17.1159C11.1637 18.1219 11.9792 18.9374 12.9851 18.9374C13.9911 18.9374 14.8066 18.1219 14.8066 17.1159C14.8066 16.4091 14.404 15.7963 13.8155 15.4944V8.83859L16.3874 11.4104C16.2839 11.6392 16.2263 11.8932 16.2263 12.1606C16.2263 13.1666 17.0417 13.9821 18.0477 13.9821C19.0536 13.9821 19.8691 13.1666 19.8691 12.1606C19.8691 11.1547 19.0536 10.3392 18.0477 10.3392C17.8522 10.3392 17.6639 10.37 17.4874 10.427L14.7252 7.66482C14.7781 7.49425 14.8066 7.31287 14.8066 7.1249C14.8066 6.11894 13.9911 5.30346 12.9851 5.30346C12.7972 5.30346 12.6159 5.33194 12.4452 5.38482L9.68454 2.62415Z" fill="white"/>
</g>
</svg>
