<svg width="25" height="24" viewBox="0 0 25 24" fill="none" xmlns="http://www.w3.org/2000/svg">
<g id="tailwind-svgrepo-com">
<path id="Vector" d="M6.99292 10.275C7.69292 7.47501 9.44292 6.07501 12.2429 6.07501C16.4429 6.07501 16.9679 9.22501 19.0679 9.75001C20.4679 10.1 21.6929 9.57501 22.7429 8.17501C22.0429 10.975 20.2929 12.375 17.4929 12.375C13.2929 12.375 12.7679 9.22501 10.6679 8.70001C9.26792 8.35001 8.04292 8.87501 6.99292 10.275ZM1.74292 16.575C2.44292 13.775 4.19292 12.375 6.99292 12.375C11.1929 12.375 11.7179 15.525 13.8179 16.05C15.2179 16.4 16.4429 15.875 17.4929 14.475C16.7929 17.275 15.0429 18.675 12.2429 18.675C8.04292 18.675 7.51792 15.525 5.41792 15C4.01792 14.65 2.79292 15.175 1.74292 16.575Z" fill="#44A8B3"/>
</g>
</svg>
